<?xml version="1.0" encoding="utf-8"?>
<!-- Generator: Adobe Illustrator 23.0.4, SVG Export Plug-In . SVG Version: 6.00 Build 0)  -->
<svg version="1.1" id="Layer_1" xmlns="http://www.w3.org/2000/svg" xmlns:xlink="http://www.w3.org/1999/xlink" x="0px" y="0px"
	 viewBox="0 0 120 120" style="enable-background:new 0 0 120 120;" xml:space="preserve">
<g fill="white">
	<path d="M103.1,23h-3.8c-1,0-1.9,0.8-1.9,1.9s0.8,1.9,1.9,1.9h3.8c1,0,1.9-0.8,1.9-1.9S104.2,23,103.1,23z"/>
	<path d="M111.6,8H8.4C3.8,8,0,11.7,0,16.4v79.7c0,4.7,3.8,8.4,8.4,8.4h42.2v3.8H38.4c-1,0-1.9,0.8-1.9,1.9s0.8,1.9,1.9,1.9h43.1
		c1,0,1.9-0.8,1.9-1.9s-0.8-1.9-1.9-1.9H69.4v-3.8h42.2c4.7,0,8.4-3.8,8.4-8.4V16.4C120,11.7,116.2,8,111.6,8z M65.6,108.3H54.4
		v-3.8h11.2V108.3z M111.6,100.8H8.4c-2.2,0-4.1-1.6-4.6-3.8h112.3C115.7,99.2,113.8,100.8,111.6,100.8z M116.2,93.3H3.8V16.4
		c0-2.6,2.1-4.7,4.7-4.7h103.1c2.6,0,4.7,2.1,4.7,4.7V93.3z"/>
	<path d="M107.8,15.5H12.2c-2.6,0-4.7,2.1-4.7,4.7v66.6c0,1,0.8,1.9,1.9,1.9s1.9-0.8,1.9-1.9V34.2h97.5v52.5c0,1,0.8,1.9,1.9,1.9
		s1.9-0.8,1.9-1.9V20.2C112.5,17.6,110.4,15.5,107.8,15.5z M108.8,30.5H11.2V20.2c0-0.5,0.4-0.9,0.9-0.9h95.6c0.5,0,0.9,0.4,0.9,0.9
		V30.5z"/>
	<path d="M91.9,23h-3.8c-1,0-1.9,0.8-1.9,1.9s0.8,1.9,1.9,1.9h3.8c1,0,1.9-0.8,1.9-1.9S92.9,23,91.9,23z"/>
	<path d="M35.8,43.2c-0.7-0.7-1.9-0.8-2.7,0L14.6,61.1c-0.7,0.7-0.8,1.9,0,2.7c0,0,0,0,0,0L33,81.5c0.7,0.7,1.9,0.7,2.7-0.1
		c0.7-0.7,0.7-1.9,0-2.6l-17-16.4l17.2-16.6C36.5,45.2,36.6,44,35.8,43.2C35.8,43.2,35.8,43.2,35.8,43.2z"/>
	<path d="M86.8,43.2c-0.7-0.7-1.9-0.7-2.7,0c-0.7,0.7-0.7,1.9,0,2.7l0,0l17.2,16.6l-17,16.4c-0.7,0.7-0.8,1.9,0,2.7
		c0.7,0.7,1.9,0.8,2.6,0l18.4-17.7c0.7-0.7,0.8-1.9,0-2.7c0,0,0,0,0,0L86.8,43.2z"/>
	<path d="M77.8,76.4H55l-3.3,3.8h26.1c1,0,1.9-0.8,1.9-1.9S78.8,76.4,77.8,76.4z"/>
	<path d="M42.2,72.7h1.1l3.3-3.8h-4.4c-1,0-1.9,0.8-1.9,1.9S41.2,72.7,42.2,72.7z"/>
	<path d="M77.8,68.9H61.6l-3.3,3.8h19.5c1,0,1.9-0.8,1.9-1.9S78.8,68.9,77.8,68.9z"/>
	<path d="M42.2,65.2h7.7l3.3-3.8h-11c-1,0-1.9,0.8-1.9,1.9C40.3,64.3,41.2,65.2,42.2,65.2z"/>
	<path d="M77.8,61.4h-9.6l-3.3,3.8h12.9c1,0,1.9-0.8,1.9-1.9C79.7,62.2,78.8,61.4,77.8,61.4z"/>
	<path d="M77.8,53.9h-3l-3.3,3.8h6.3c1,0,1.9-0.8,1.9-1.9S78.8,53.9,77.8,53.9z"/>
	<path d="M42.2,57.7h14.3l3.3-3.8H42.2c-1,0-1.9,0.8-1.9,1.9S41.2,57.7,42.2,57.7z"/>
	<path d="M42.2,50.2h20.9l3.3-3.8H42.2c-1,0-1.9,0.8-1.9,1.9S41.2,50.2,42.2,50.2z"/>
	<path d="M79.7,48.4l-1.5,1.8C79,50,79.6,49.2,79.7,48.4z"/>
	<path d="M78.3,38.6L37,85.5c-0.7,0.8-0.6,2,0.2,2.6s2,0.6,2.6-0.2l41.2-46.9c0.7-0.8,0.6-2-0.2-2.6S79,37.8,78.3,38.6z"/>
</g>
</svg>
