<?xml version="1.0" encoding="utf-8"?>
<!-- Generator: Adobe Illustrator 24.1.0, SVG Export Plug-In . SVG Version: 6.00 Build 0)  -->
<svg version="1.1" id="Layer_1" xmlns="http://www.w3.org/2000/svg" xmlns:xlink="http://www.w3.org/1999/xlink" x="0px" y="0px"
	 viewBox="0 0 200 200" style="enable-background:new 0 0 200 200;" xml:space="preserve">
<style type="text/css">
	.st0{fill:#FFFFFF;}
</style>
<g>
	<path class="st0" d="M11.3,146.3H18v-6.7h-6.7c-3.7,0-6.7-3-6.7-6.7V13c0-3.7,3-6.7,6.7-6.7H158c3.7,0,6.7,3,6.7,6.7v6.7h6.7V13
		c0-7.4-6-13.3-13.3-13.3H11.3C4-0.3-2,5.7-2,13v120C-2,140.4,4,146.3,11.3,146.3z"/>
	<rect x="11.3" y="13" class="st0" width="6.7" height="6.7"/>
	<rect x="24.7" y="13" class="st0" width="6.7" height="6.7"/>
	<rect x="38" y="13" class="st0" width="6.7" height="6.7"/>
	<path class="st0" d="M184.7,26.3H38c-7.4,0-13.3,6-13.3,13.3v120c0,7.4,6,13.3,13.3,13.3h146.7c7.4,0,13.3-6,13.3-13.3v-120
		C198,32.3,192,26.3,184.7,26.3z M191.3,159.7c0,3.7-3,6.7-6.7,6.7H38c-3.7,0-6.7-3-6.7-6.7v-120c0-3.7,3-6.7,6.7-6.7h146.7
		c3.7,0,6.7,3,6.7,6.7V159.7z"/>
	<rect x="38" y="39.7" class="st0" width="6.7" height="6.7"/>
	<rect x="51.3" y="39.7" class="st0" width="6.7" height="6.7"/>
	<rect x="64.7" y="39.7" class="st0" width="6.7" height="6.7"/>
	<rect x="38" y="53" class="st0" width="146.7" height="6.7"/>
	<rect x="44.7" y="109.7" class="st0" width="20" height="6.7"/>
	<rect x="44.7" y="126.3" class="st0" width="70" height="6.7"/>
	<rect x="44.7" y="143" class="st0" width="36.7" height="6.7"/>
	<rect x="104.7" y="93" class="st0" width="33.3" height="6.7"/>
	<rect x="154.7" y="126.3" class="st0" width="23.3" height="6.7"/>
	<rect x="124.7" y="143" class="st0" width="53.3" height="6.7"/>
	<rect x="74.7" y="109.7" class="st0" width="50" height="6.7"/>
	<rect x="104.7" y="76.3" class="st0" width="23.3" height="6.7"/>
	<rect x="134.7" y="76.3" class="st0" width="43.3" height="6.7"/>
	<rect x="88" y="143" class="st0" width="30" height="6.7"/>
	<rect x="131.3" y="109.7" class="st0" width="46.7" height="6.7"/>
	<rect x="144.7" y="93" class="st0" width="33.3" height="6.7"/>
	<rect x="121.3" y="126.3" class="st0" width="26.7" height="6.7"/>
	<path class="st0" d="M55.7,74l-10,10c-1.3,1.3-1.3,3.4,0,4.7l10,10l4.7-4.7l-7.6-7.6l7.6-7.6L55.7,74z"/>
	<path class="st0" d="M87,98.7l10-10c1.3-1.3,1.3-3.4,0-4.7L87,74l-4.7,4.7l7.6,7.6L82.3,94L87,98.7z"/>
	
		<rect x="57.6" y="83" transform="matrix(0.2427 -0.9701 0.9701 0.2427 -29.7398 134.6041)" class="st0" width="27.5" height="6.7"/>
	<path class="st0" d="M148,179.7H74.7c-0.9,0-1.7,0.4-2.4,1l-6.7,6.7c-1.3,1.3-1.3,3.4,0,4.7l6.7,6.7c0.6,0.6,1.5,1,2.4,1H148
		c5.5,0,10-4.5,10-10S153.5,179.7,148,179.7z M138,193h-62l-3.3-3.3l3.3-3.3h62V193z M148,193h-3.3v-6.7h3.3c1.8,0,3.3,1.5,3.3,3.3
		S149.8,193,148,193z"/>
</g>
</svg>
