<?xml version="1.0" encoding="utf-8"?>
<!-- Generator: Adobe Illustrator 24.1.0, SVG Export Plug-In . SVG Version: 6.00 Build 0)  -->
<svg version="1.1" id="Layer_1" xmlns="http://www.w3.org/2000/svg" xmlns:xlink="http://www.w3.org/1999/xlink" x="0px" y="0px"
	 viewBox="0 0 200 200" style="enable-background:new 0 0 200 200;" xml:space="preserve">
<style type="text/css">
	.st0{fill:#141618;}
</style>
<g>
	<path class="st0" d="M13.3,147.2H20v-6.7h-6.7c-3.7,0-6.7-3-6.7-6.7v-120c0-3.7,3-6.7,6.7-6.7H160c3.7,0,6.7,3,6.7,6.7v6.7h6.7
		v-6.7c0-7.4-6-13.3-13.3-13.3H13.3C6,0.5,0,6.5,0,13.8v120C0,141.2,6,147.2,13.3,147.2z"/>
	<rect x="13.3" y="13.8" class="st0" width="6.7" height="6.7"/>
	<rect x="26.7" y="13.8" class="st0" width="6.7" height="6.7"/>
	<rect x="40" y="13.8" class="st0" width="6.7" height="6.7"/>
	<path class="st0" d="M186.7,27.2H40c-7.4,0-13.3,6-13.3,13.3v120c0,7.4,6,13.3,13.3,13.3h146.7c7.4,0,13.3-6,13.3-13.3v-120
		C200,33.1,194,27.2,186.7,27.2z M193.3,160.5c0,3.7-3,6.7-6.7,6.7H40c-3.7,0-6.7-3-6.7-6.7v-120c0-3.7,3-6.7,6.7-6.7h146.7
		c3.7,0,6.7,3,6.7,6.7V160.5z"/>
	<rect x="40" y="40.5" class="st0" width="6.7" height="6.7"/>
	<rect x="53.3" y="40.5" class="st0" width="6.7" height="6.7"/>
	<rect x="66.7" y="40.5" class="st0" width="6.7" height="6.7"/>
	<rect x="40" y="53.8" class="st0" width="146.7" height="6.7"/>
	<rect x="46.7" y="110.5" class="st0" width="20" height="6.7"/>
	<rect x="46.7" y="127.2" class="st0" width="70" height="6.7"/>
	<rect x="46.7" y="143.8" class="st0" width="36.7" height="6.7"/>
	<rect x="106.7" y="93.8" class="st0" width="33.3" height="6.7"/>
	<rect x="156.7" y="127.2" class="st0" width="23.3" height="6.7"/>
	<rect x="126.7" y="143.8" class="st0" width="53.3" height="6.7"/>
	<rect x="76.7" y="110.5" class="st0" width="50" height="6.7"/>
	<rect x="106.7" y="77.2" class="st0" width="23.3" height="6.7"/>
	<rect x="136.7" y="77.2" class="st0" width="43.3" height="6.7"/>
	<rect x="90" y="143.8" class="st0" width="30" height="6.7"/>
	<rect x="133.3" y="110.5" class="st0" width="46.7" height="6.7"/>
	<rect x="146.7" y="93.8" class="st0" width="33.3" height="6.7"/>
	<rect x="123.3" y="127.2" class="st0" width="26.7" height="6.7"/>
	<path class="st0" d="M57.6,74.8l-10,10c-1.3,1.3-1.3,3.4,0,4.7l10,10l4.7-4.7l-7.6-7.6l7.6-7.6L57.6,74.8z"/>
	<path class="st0" d="M89,99.5l10-10c1.3-1.3,1.3-3.4,0-4.7l-10-10l-4.7,4.7l7.6,7.6l-7.6,7.6L89,99.5z"/>
	
		<rect x="59.6" y="83.8" transform="matrix(0.2427 -0.9701 0.9701 0.2427 -29.0157 137.1509)" class="st0" width="27.5" height="6.7"/>
	<path class="st0" d="M150,180.5H76.7c-0.9,0-1.7,0.4-2.4,1l-6.7,6.7c-1.3,1.3-1.3,3.4,0,4.7l6.7,6.7c0.6,0.6,1.5,1,2.4,1H150
		c5.5,0,10-4.5,10-10S155.5,180.5,150,180.5z M140,193.8H78l-3.3-3.3l3.3-3.3h62V193.8z M150,193.8h-3.3v-6.7h3.3
		c1.8,0,3.3,1.5,3.3,3.3C153.3,192.3,151.8,193.8,150,193.8z"/>
</g>
</svg>
