<?xml version="1.0" encoding="utf-8"?>
<!-- Generator: Adobe Illustrator 23.0.4, SVG Export Plug-In . SVG Version: 6.00 Build 0)  -->
<svg version="1.1" id="Layer_1" xmlns="http://www.w3.org/2000/svg" xmlns:xlink="http://www.w3.org/1999/xlink" x="0px" y="0px"
	 viewBox="0 0 120 120" style="enable-background:new 0 0 120 120;" xml:space="preserve">
<g fill="white">
	<path d="M38.7,75.9c0.3,0.5,0.8,0.9,1.4,1c0,0,37,5.5,37.1,5.5c0.7,0,1.3-0.4,1.6-0.9l7.9-13.9l3.2,2.8c0.8,0.7,2,0.6,2.7-0.1
		c0.7-0.8,0.6-2-0.1-2.7L74.1,51.1c-0.4-0.4-1-0.5-1.5-0.4l-30.1,5.4c-1,0.1-1.8,1-1.7,2s1,1.8,2,1.7c0.1,0,4.4-0.8,4.4-0.8l-8.6,15
		C38.4,74.7,38.4,75.3,38.7,75.9z M52.1,58.2l20.2-3.7l11.5,10.3l-7.7,13.6l-32.8-4.9L52.1,58.2z"/>
	<path d="M74.5,65.1c-0.9-0.5-2-0.1-2.5,0.8c0,0,0,0,0,0l-2.2,4.3l-11.4-1.7l1.4-2.5c0.5-0.9,0.2-2-0.7-2.5c-0.9-0.5-2-0.2-2.6,0.7
		c0,0,0,0,0,0L53.7,69c-0.5,0.9-0.2,2,0.7,2.6c0.2,0.1,0.4,0.2,0.7,0.2c0,0,15.6,2.3,15.7,2.3c0.7,0,1.3-0.3,1.7-0.9l2.8-5.5
		C75.7,66.8,75.4,65.6,74.5,65.1C74.5,65.1,74.5,65.1,74.5,65.1z"/>
	<path d="M106.4,30.6c0-1-0.8-1.9-1.9-1.9h-3.9l-3.1-10.9c3.6-2.1,4.7-6.7,2.6-10.3c-1-1.7-2.6-2.9-4.5-3.4V1.9c0-1-0.8-1.9-1.9-1.9
		c-1,0-1.9,0.8-1.9,1.9v2.2c-4,1-6.4,5.1-5.4,9.1c0.5,1.9,1.7,3.5,3.4,4.5l-3.1,10.9h-3.9c-1,0-1.9,0.8-1.9,1.9c0,1,0.8,1.9,1.9,1.9
		c0,0,0,0,0,0h2.8l-4.8,17.1c-0.3,1,0.3,2,1.3,2.3c1,0.3,2-0.3,2.3-1.3l5.1-18.1h8.1l3.5,12.2l0,0l1.1,3.9l0,0l0.6,2
		c0.3,1,1.3,1.6,2.3,1.3s1.6-1.3,1.3-2.3l0,0l-0.4-1.3l-0.9-3.1l-3.6-12.7h2.8C105.5,32.5,106.4,31.7,106.4,30.6
		C106.4,30.6,106.4,30.6,106.4,30.6z M90.7,28.7l2.8-9.9h0.4l2.8,9.9H90.7z M93.7,15.1c-2.1,0-3.7-1.7-3.7-3.7s1.7-3.7,3.7-3.7
		s3.7,1.7,3.7,3.7C97.5,13.4,95.8,15.1,93.7,15.1L93.7,15.1z"/>
	<path d="M38.8,51.5c-0.9-0.6-2-0.3-2.6,0.5c0,0,0,0,0,0L16.9,81.1c-0.6,0.9-0.3,2,0.5,2.6c0.2,0.2,0.5,0.2,0.8,0.3l51.7,7.9
		l6.4-2.8l-54.6-8.3l17.7-26.6C39.9,53.2,39.7,52.1,38.8,51.5z"/>
	<path d="M0.2,76.8c-1.1,6.4,3.1,12.5,9.5,13.7l47.4,7l6.4-2.8l-53.1-7.9c-4.4-0.8-7.3-5-6.5-9.3c0.5-2.3,2.1-4.2,4.2-5.1
		c2.7-1.3,6-1.3,8.6,0.2c0.8,0.4,1.9,0.2,2.4-0.6l20.8-31.2l38.3,4.8l1-3.6l-37-4.7l7.7-11.6c0.6-0.9,0.3-2-0.5-2.6
		c-0.2-0.1-0.4-0.2-0.6-0.3c-8.6-3.2-15.4,2.7-17.8,6.3L2.1,72.3C1.3,73.7,0.6,75.2,0.2,76.8z M34,31.1c0.2-0.3,4.6-6.5,11.2-5.4
		L16.8,68.5c-2.3-0.9-4.9-1.1-7.3-0.6L34,31.1z"/>
	<path d="M104,76.8l15.8-27.2c0.5-0.9,0.2-2-0.7-2.6c-0.2-0.1-0.5-0.2-0.7-0.2l-9-1.1l0.8,2.9c0.1,0.3,0.2,0.7,0.2,1l4.7,0.6
		L98.1,79.4L104,76.8z"/>
	<path d="M95.6,120c0.8,0,1.5-0.5,1.8-1.2l13.5-37.5c0.3-0.7,0.1-1.5-0.5-2c-0.6-0.5-1.4-0.6-2-0.3l-53.6,23.7
		c-0.9,0.4-1.4,1.5-0.9,2.5c0.2,0.5,0.6,0.8,1.1,1L95,119.9C95.2,120,95.4,120,95.6,120z M60.7,104.1l45.3-20l-11.4,31.6L60.7,104.1
		z"/>
	<path d="M97.8,92.6c-0.6-0.5-1.4-0.6-2-0.3l-19,8.4c-0.9,0.4-1.4,1.5-0.9,2.5c0.2,0.5,0.6,0.8,1.1,1l14.2,4.9c1,0.3,2-0.2,2.4-1.1
		c0,0,0,0,0,0l4.8-13.3C98.6,93.8,98.4,93.1,97.8,92.6z M90.6,104.8l-7.9-2.7l10.6-4.7L90.6,104.8z"/>
	<polygon points="97.2,44.1 90.5,43.3 89.5,46.9 98.3,48 	"/>
</g>
</svg>
