<?xml version="1.0" encoding="utf-8"?>
<!-- Generator: Adobe Illustrator 24.1.0, SVG Export Plug-In . SVG Version: 6.00 Build 0)  -->
<svg version="1.1" id="Layer_1" xmlns="http://www.w3.org/2000/svg" xmlns:xlink="http://www.w3.org/1999/xlink" x="0px" y="0px"
	 viewBox="0 0 200 200" style="enable-background:new 0 0 200 200;" xml:space="preserve">
<style type="text/css">
	.st0{fill:#1A5DAB;}
</style>
<g>
	<path class="st0" d="M199.9,40.4c0-0.1-0.1-0.2-0.1-0.3c-0.1-0.2-0.1-0.3-0.2-0.4c-0.1-0.1-0.1-0.2-0.2-0.3
		c-0.1-0.1-0.2-0.3-0.3-0.4c-0.1-0.1-0.2-0.2-0.3-0.3c-0.1-0.1-0.2-0.2-0.3-0.2l-60-38.2c-1.1-0.7-2.4-0.7-3.5,0l-60,36.8
		c-0.1,0.1-0.2,0.2-0.3,0.3c-0.1,0.1-0.2,0.2-0.3,0.2c-0.1,0.1-0.2,0.2-0.3,0.4c-0.1,0.1-0.2,0.2-0.2,0.3c-0.1,0.2-0.2,0.3-0.2,0.5
		c0,0.1-0.1,0.2-0.1,0.3c-0.1,0.3-0.1,0.6-0.1,0.9v39.8H80V45.9l53.3,32.7v64.4c0,1.8,1.5,3.3,3.3,3.3c0.6,0,1.2-0.2,1.7-0.5
		l60-35.5c1-0.6,1.6-1.7,1.6-2.9V41.3c0-0.1,0-0.2,0-0.3C200,40.8,199.9,40.6,199.9,40.4z M136.7,72.9l-1.7-1L83,39.9L136.6,7
		l53.7,34.1L136.7,72.9z M193.3,105.7L140,137.3V78.7l53.3-31.6V105.7z"/>
	<path class="st0" d="M120,193.1H16.7c-5.5,0-10-4.5-10-10s4.5-10,10-10h6.7c1.8,0,3.3-1.5,3.3-3.3V93.1H100v16.7
		c0,1.8,1.5,3.3,3.3,3.3H120v36.7h6.7v-40c0-0.1,0-0.1,0-0.2c0-0.3-0.1-0.6-0.2-0.9c0-0.1-0.1-0.2-0.1-0.3c-0.2-0.4-0.4-0.7-0.7-1
		l-20-20c-0.3-0.3-0.6-0.5-1-0.7c-0.1,0-0.2-0.1-0.3-0.1c-0.3-0.1-0.6-0.2-0.9-0.2c-0.1,0-0.1,0-0.2,0H26.7V69.8
		c0-1.8-1.5-3.3-3.3-3.3h-6.7C7.5,66.5,0,73.9,0,83.1v100c0,9.2,7.5,16.7,16.7,16.7h106.7c1.8,0,3.3-1.5,3.3-3.3v-6.7H120V193.1z
		 M106.7,97.8l8.6,8.6h-8.6V97.8z M6.7,89.8v-6.7c0-5.5,4.5-10,10-10H20v93.3h-3.3c-3.6,0-7.1,1.2-10,3.3V89.8z"/>
	<path class="st0" d="M183.3,156.4h-80c-1.8,0-3.3,1.5-3.3,3.3v20c0,1.8,1.5,3.3,3.3,3.3h80c1.8,0,3.3-1.5,3.3-3.3v-20
		C186.7,157.9,185.2,156.4,183.3,156.4z M180,176.4h-73.3v-13.3h6.7v6.7h6.7v-6.7h6.7v6.7h6.7v-6.7h6.7v6.7h6.7v-6.7h6.7v6.7h6.7
		v-6.7h6.7v6.7h6.7v-6.7h6.7V176.4z"/>
	<path class="st0" d="M93.3,130.4c0-0.1,0-0.2,0-0.3c0-0.2,0-0.4-0.1-0.6c0-0.1-0.1-0.2-0.1-0.3c0-0.2-0.1-0.3-0.2-0.4
		c-0.1-0.1-0.1-0.2-0.2-0.3c-0.1-0.1-0.2-0.2-0.3-0.4c-0.1-0.1-0.2-0.2-0.3-0.3c-0.1-0.1-0.2-0.1-0.3-0.2l-26.7-17.3
		c-1.1-0.7-2.5-0.7-3.6,0L34.9,127c-0.1,0.1-0.2,0.2-0.3,0.2c-0.1,0.1-0.2,0.2-0.3,0.3c-0.1,0.1-0.2,0.2-0.3,0.4
		c-0.1,0.1-0.2,0.2-0.2,0.3c-0.1,0.2-0.2,0.3-0.2,0.5c0,0.1-0.1,0.2-0.1,0.3c-0.1,0.3-0.1,0.6-0.1,0.9v26.7c0,1.1,0.6,2.2,1.6,2.8
		l26.7,16.7l0.1,0c0,0,0,0,0.1,0.1c0.2,0.1,0.3,0.2,0.5,0.2c0.1,0,0.2,0.1,0.2,0.1c0.6,0.2,1.2,0.2,1.7,0c0.1,0,0.2-0.1,0.3-0.1
		c0.2-0.1,0.3-0.1,0.5-0.2l0.1,0l0,0l26.7-16.1c1-0.6,1.6-1.7,1.6-2.8V130.4z M60,167.1l-20-12.5v-18.8l20,12.5V167.1z M63.4,142.5
		L43,129.8l20.3-12.7l20.4,13.2l-13.2,8L63.4,142.5z M86.7,155.2l-20,12v-18.9l17.5-10.5l2.5-1.5V155.2z"/>
	<rect x="100" y="129.8" class="st0" width="13.3" height="6.7"/>
	<rect x="100" y="143.1" class="st0" width="13.3" height="6.7"/>
	<rect x="33.3" y="103.1" class="st0" width="6.7" height="6.7"/>
	<rect x="105.2" y="28.1" transform="matrix(0.848 -0.53 0.53 0.848 0.7656 65.5522)" class="st0" width="18.9" height="6.7"/>
	<rect x="127.5" y="18.1" transform="matrix(0.848 -0.53 0.53 0.848 8.498 72.5117)" class="st0" width="6.3" height="6.7"/>
	<rect x="86.7" y="63.1" class="st0" width="6.7" height="16.7"/>
	<rect x="86.7" y="103.1" class="st0" width="6.7" height="6.7"/>
</g>
</svg>
