<?xml version="1.0" encoding="utf-8"?>
<!-- Generator: Adobe Illustrator 23.0.4, SVG Export Plug-In . SVG Version: 6.00 Build 0)  -->
<svg version="1.1" id="Layer_1" xmlns="http://www.w3.org/2000/svg" xmlns:xlink="http://www.w3.org/1999/xlink" x="0px" y="0px"
	 viewBox="0 0 120 120" style="enable-background:new 0 0 120 120;" xml:space="preserve">
<g fill="white">
	<path d="M35.4,119.7h63.5c0.1,0,0.2,0,0.3,0h0.1l0.2-0.1l0.1-0.1l0.2-0.1c0.1-0.1,0.2-0.1,0.3-0.2l18.7-18.7
		c0.1-0.1,0.2-0.2,0.3-0.4l0.1-0.1c0.1-0.1,0.1-0.3,0.2-0.4l0,0c0-0.1,0-0.2,0-0.4v-7.7c0-1-0.8-1.9-1.9-1.9s-1.9,0.8-1.9,1.9v5.8
		H98.9c-1,0-1.9,0.8-1.9,1.9V116H35.4V4h80.3v72.8c0,1,0.8,1.9,1.9,1.9s1.9-0.8,1.9-1.9V4c0-2.1-1.7-3.7-3.7-3.7H35.4
		c-2.1,0-3.7,1.7-3.7,3.7v112C31.7,118,33.4,119.7,35.4,119.7z M100.7,101.1H113l-12.3,12.3V101.1z"/>
	<path d="M97,32H63.4c-1,0-1.9,0.8-1.9,1.9s0.8,1.9,1.9,1.9H97c1,0,1.9-0.8,1.9-1.9S98,32,97,32z"/>
	<path d="M97,50.7H63.4c-1,0-1.9,0.8-1.9,1.9s0.8,1.9,1.9,1.9H97c1,0,1.9-0.8,1.9-1.9S98,50.7,97,50.7z"/>
	<path d="M97,69.3H63.4c-1,0-1.9,0.8-1.9,1.9s0.8,1.9,1.9,1.9H97c1,0,1.9-0.8,1.9-1.9S98,69.3,97,69.3z"/>
	<path d="M97,88H63.4c-1,0-1.9,0.8-1.9,1.9s0.8,1.9,1.9,1.9H97c1,0,1.9-0.8,1.9-1.9S98,88,97,88z"/>
	<path d="M103.5,14.3c0-3.6-2.9-6.5-6.5-6.5H68.6c-1,0-1.9,0.8-1.9,1.9s0.8,1.9,1.9,1.9H97c1.5,0,2.8,1.3,2.8,2.8s-1.3,2.8-2.8,2.8
		H54.1c-1.5,0-2.8-1.3-2.8-2.8s1.3-2.8,2.8-2.8h7c1,0,1.9-0.8,1.9-1.9s-0.8-1.9-1.9-1.9h-7c-3.6,0-6.5,2.9-6.5,6.5s2.9,6.5,6.5,6.5
		l0,0H97C100.6,20.8,103.5,17.9,103.5,14.3z"/>
	<path d="M55,29.2c0-1-0.8-1.9-1.9-1.9h-9.3c-1,0-1.9,0.8-1.9,1.9v9.3c0,1,0.8,1.9,1.9,1.9h9.3c1,0,1.9-0.8,1.9-1.9V29.2z
		 M51.3,36.7h-5.6v-5.6h5.6V36.7z"/>
	<path d="M55,47.9c0-1-0.8-1.9-1.9-1.9h-9.3c-1,0-1.9,0.8-1.9,1.9v9.3c0,1,0.8,1.9,1.9,1.9h9.3c1,0,1.9-0.8,1.9-1.9V47.9z
		 M51.3,55.3h-5.6v-5.6h5.6V55.3z"/>
	<path d="M55,66.5c0-1-0.8-1.9-1.9-1.9h-9.3c-1,0-1.9,0.8-1.9,1.9v9.3c0,1,0.8,1.9,1.9,1.9h9.3c1,0,1.9-0.8,1.9-1.9V66.5z M51.3,74
		h-5.6v-5.6h5.6V74z"/>
	<path d="M53.2,83.3h-9.3c-1,0-1.9,0.8-1.9,1.9v9.3c0,1,0.8,1.9,1.9,1.9h9.3c1,0,1.9-0.8,1.9-1.9v-9.3C55,84.2,54.2,83.3,53.2,83.3z
		 M51.3,92.7h-5.6v-5.6h5.6V92.7z"/>
	<path d="M1.8,46.9c1,0,1.9-0.8,1.9-1.9V18.9h2.8v61.1c0,1,0.8,1.9,1.9,1.9s1.9-0.8,1.9-1.9V33.9h5.6v21.5c0,1,0.8,1.9,1.9,1.9
		c1,0,1.9-0.8,1.9-1.9V33.9h5.6v63.6c0,1-0.8,1.7-1.7,1.7H12c-1,0-1.7-0.8-1.7-1.7V87.4c0-1-0.8-1.9-1.9-1.9s-1.9,0.8-1.9,1.9v10.1
		c0,3,2.5,5.5,5.5,5.5h0.1v6.5c0,1,0.8,1.9,1.9,1.9h0.3l1.4,6.9c0.2,0.9,1,1.5,1.9,1.5h0.3c0.9,0,1.7-0.6,1.9-1.5l1.4-6.9h0.3
		c1,0,1.9-0.8,1.9-1.9v-6.5h0.1c3,0,5.5-2.5,5.5-5.5V18.3c0-5.9-4.8-10.6-10.6-10.6h-1.2c-4.6,0-8.7,3-10.1,7.5H1.8
		c-1,0-1.9,0.8-1.9,1.9v28C0,46.1,0.8,46.9,1.8,46.9z M19.6,107.6h-3.7v-4.7h3.7V107.6z M10.2,18.3c0-3.8,3.1-6.9,6.9-6.9h1.2
		c3.8,0,6.9,3.1,6.9,6.9v11.8H10.2V18.3z"/>
	<path d="M15.8,88.9c0,1,0.8,1.9,1.9,1.9c1,0,1.9-0.8,1.9-1.9V70.4c0-1-0.8-1.9-1.9-1.9c-1,0-1.9,0.8-1.9,1.9V88.9z"/>
	<circle cx="117.5" cy="84.3" r="1.9"/>
	<circle cx="17.7" cy="62.8" r="1.9"/>
</g>
</svg>
