<?xml version="1.0" encoding="utf-8"?>
<!-- Generator: Adobe Illustrator 24.1.0, SVG Export Plug-In . SVG Version: 6.00 Build 0)  -->
<svg version="1.1" id="Layer_1" xmlns="http://www.w3.org/2000/svg" xmlns:xlink="http://www.w3.org/1999/xlink" x="0px" y="0px"
	 viewBox="0 0 200 200" style="enable-background:new 0 0 200 200;" xml:space="preserve">
<style type="text/css">
	.st0{fill:#141618;}
</style>
<g>
	<rect x="40" y="13" class="st0" width="6.7" height="6.7"/>
	<rect x="53.3" y="13" class="st0" width="6.7" height="6.7"/>
	<rect x="66.7" y="13" class="st0" width="6.7" height="6.7"/>
	<path class="st0" d="M3.3,199.7h103.3c1.8,0,3.3-1.5,3.3-3.3c0-0.9-0.4-1.7-1-2.4L5.7,90.7c-1.3-1.3-3.4-1.3-4.7,0
		c-0.6,0.6-1,1.5-1,2.4v103.3C0,198.2,1.5,199.7,3.3,199.7z M6.7,101.1l92,92h-92V101.1z"/>
	<path class="st0" d="M59,174l-33.3-33.3c-1.3-1.3-3.4-1.3-4.7,0c-0.6,0.6-1,1.5-1,2.4v33.3c0,1.8,1.5,3.3,3.3,3.3h33.3
		c1.8,0,3.3-1.5,3.3-3.3C60,175.5,59.6,174.6,59,174z M26.7,173v-22l22,22H26.7z"/>
	<path class="st0" d="M196.3,28.1c5-5,5-13.1,0-18c-5-5-13.1-5-18,0l-5,5c-0.6-8.7-7.9-15.4-16.5-15.4H43.3
		c-9.2,0-16.7,7.5-16.7,16.7V103h6.7V16.3c0-5.5,4.5-10,10-10h113.3c5.5,0,10,4.5,10,10v5.3L135.3,53h-24.5
		c-7.4-18.9-28.6-28.2-47.5-20.8S35.1,60.8,42.5,79.7c5.1,12.9,17,21.9,30.8,23.2v13.5c0,1.8,1.5,3.3,3.3,3.3H150
		c1.8,0,3.3-1.5,3.3-3.3V71.1l13.3-13.3v68.6H90c-1.8,0-3.3,1.5-3.3,3.3v26.7c0,1.8,1.5,3.3,3.3,3.3h76.7v3.3c0,5.5-4.5,10-10,10
		h-53.3v6.7h53.3c9.2,0,16.7-7.5,16.7-16.7v-3.3h23.3c1.8,0,3.3-1.5,3.3-3.3v-26.7c0-1.8-1.5-3.3-3.3-3.3h-23.3V51.1L196.3,28.1z
		 M182.9,14.8c2.3-2.4,6.2-2.5,8.6-0.2c2.4,2.3,2.5,6.2,0.2,8.6c-0.1,0.1-0.1,0.1-0.2,0.2L190,25l-8.6-8.6L182.9,14.8z M106.7,66.3
		c0,15.3-11.5,28.1-26.7,29.8V59.7h25.9C106.4,61.9,106.7,64.1,106.7,66.3z M73.3,56.3v39.8C56.9,94.3,45,79.5,46.8,63
		s16.6-28.3,33.1-26.5C90.1,37.6,99,43.9,103.5,53H76.7C74.8,53,73.3,54.5,73.3,56.3z M146.7,113H80v-10.2
		c20.1-1.8,35-19.5,33.2-39.6c-0.1-1.2-0.3-2.4-0.5-3.6h15.9l-7.6,7.6c-0.5,0.5-0.8,1.1-0.9,1.7l-3.3,16.7c-0.4,1.8,0.8,3.6,2.6,3.9
		c0.2,0,0.4,0.1,0.7,0.1c0.2,0,0.4,0,0.7-0.1l16.7-3.3c0.6-0.1,1.2-0.4,1.7-0.9l7.6-7.6V113z M125.4,76.4l4.5,4.5l-5.7,1.1
		L125.4,76.4z M180,133v6.7h6.7V133h6.7v20h-100v-20h6.7v6.7h6.7V133h6.7v6.7h6.7V133h6.7v6.7h6.7V133h6.7v6.7h6.7V133h6.7v6.7h6.7
		V133h6.7v6.7h6.7V133H180z M136.7,78.3l-8.6-8.6l48.6-48.6l8.6,8.6L136.7,78.3z"/>
</g>
</svg>
