<?xml version="1.0" encoding="utf-8"?>
<!-- Generator: Adobe Illustrator 24.1.0, SVG Export Plug-In . SVG Version: 6.00 Build 0)  -->
<svg version="1.1" id="Layer_1" xmlns="http://www.w3.org/2000/svg" xmlns:xlink="http://www.w3.org/1999/xlink" x="0px" y="0px"
	 viewBox="0 0 445 260" style="enable-background:new 0 0 445 260;" xml:space="preserve">
<style type="text/css">
	.st0{fill:#1A5DAB;}
	.st1{fill:#1D4484;}
	.st2{fill:none;}
	.st3{fill:#FFFFFF;}
	.st4{font-family:'BentonSans-Bold';}
	.st5{font-size:18px;}
</style>
<rect class="st0" width="445" height="56"/>
<rect y="204" class="st0" width="445" height="56"/>
<polyline class="st1" points="16.4,66 139.4,66 139.4,194 0,194 0,66 16.4,66 "/>
<polyline class="st1" points="169.2,66 292.2,66 292.2,194 152.8,194 152.8,66 169.2,66 "/>
<polyline class="st1" points="322,66 445,66 445,194 305.6,194 305.6,66 322,66 "/>
<rect y="20.7" class="st2" width="445" height="22.4"/>
<text transform="matrix(1 0 0 1 152.9038 34.0483)" class="st3 st4 st5">OpenGov Brand</text>
<rect y="225.8" class="st2" width="445" height="22.4"/>
<text transform="matrix(1 0 0 1 175.7817 239.1393)" class="st3 st4 st5">Guidelines</text>
<rect y="110.1" class="st2" width="139.4" height="43.8"/>
<text transform="matrix(1 0 0 1 34.8491 123.4246)"><tspan x="0" y="0" class="st3 st4 st5">UI Style</tspan><tspan x="3.5" y="21.6" class="st3 st4 st5">Library</tspan></text>
<rect x="152.8" y="110.1" class="st2" width="139.4" height="43.8"/>
<text transform="matrix(1 0 0 1 170.8135 123.4246)"><tspan x="0" y="0" class="st3 st4 st5">Component</tspan><tspan x="20.3" y="21.6" class="st3 st4 st5">Library</tspan></text>
<rect x="305.6" y="110.1" class="st2" width="139.4" height="43.8"/>
<text transform="matrix(1 0 0 1 341.7614 123.4246)"><tspan x="0" y="0" class="st3 st4 st5">Pattern</tspan><tspan x="2.1" y="21.6" class="st3 st4 st5">Library</tspan></text>
</svg>
